# xmcd
#
# Track frame offsets:
#	150
#	18586
#	33881
#	45730
#	61248
#	76672
#	94799
#	111110
#	127038
#	146918
#
# Disc length: 2162 seconds
#
# Revision: 1
# Processed by: cddbd v1.5.2PL0 Copyright (c) Steve Scherf et al.
# Submitted via: audiograbber 1.83.01
#
DISCID=8008700a
DTITLE=Tim Montana - Iron Horse
DYEAR=2008
DGENRE=Southern Rock
TTITLE0=Butte America
TTITLE1=Cowboy Thing
TTITLE2=I'm Gone
TTITLE3=That's My Girl
TTITLE4=Carhartt Cowboy
TTITLE5=Please Baby Wait
TTITLE6=Iron Horse
TTITLE7=Roll Them Dice
TTITLE8=Ain't it Funny
TTITLE9=Country Life
EXTD=
EXTT0=
EXTT1=
EXTT2=
EXTT3=
EXTT4=
EXTT5=
EXTT6=
EXTT7=
EXTT8=
EXTT9=
PLAYORDER=
